# xmcd
#
# Track frame offsets:
#	150
#	22011
#	44356
#	64236
#	112864
#	147772
#	167851
#	203300
#	239693
#	257169
#
# Disc length: 3874 seconds
#
# Revision: 1
# Processed by: cddbd v1.5.1PL2 Copyright (c) Steve Scherf et al.
# Submitted via: EasyCDDAExtractor 9.0.0.1
#
DISCID=890f200a
DTITLE=Guns and Roses - Hammersmith Carling Apollo London 07-06-06 Disc 2
DYEAR=2006
DGENRE=Hard Rock
TTITLE0=Guitar Solo Bumblefoot
TTITLE1=IRS
TTITLE2=Out Ta Get Me
TTITLE3=November Rain
TTITLE4=Guitar Solo Richard - Guitar Duet (Beautiful)
TTITLE5=My Michelle (with Seb Bach)
TTITLE6=Patience
TTITLE7=Nightrain
TTITLE8=Guitar Solo (Robin Fink)
TTITLE9=Paradise City
EXTD=
EXTT0=
EXTT1=
EXTT2=
EXTT3=
EXTT4=
EXTT5=
EXTT6=
EXTT7=
EXTT8=
EXTT9=
PLAYORDER=
